<svg xmlns="http://www.w3.org/2000/svg" viewBox="0 0 960 560" width="960" height="560" role="img" aria-labelledby="title description">
<title id="title">Oblique Three.js source geometry for the section example</title>
<desc id="description">A wall, tilted slab, rail, and two foreground screens viewed from an oblique Three.js camera. The long narrow front screen hides parts of the other geometry.</desc>
<style>.frame{fill:#fff;stroke:#d6dde6;stroke-width:1}.label{font-family:ui-sans-serif,system-ui,sans-serif;fill:#334155}.title{font-size:24px;font-weight:700}.small{font-size:14px}.mesh{stroke-width:2;stroke-linejoin:round}.interface{stroke:#0f766e;stroke-width:3.2;stroke-linecap:round}</style>
<rect width="100%" height="100%" fill="#f8fafc"/>
<text class="label title" x="60" y="46">Three.js source scene</text>
<text class="label small" x="60" y="70">Perspective camera, about 35° off the section axis · teal is the wall/slab intersection · violet is the front occluder</text>
<rect class="frame" x="60" y="94" width="840" height="370" rx="8"/>
<polygon points="558.82,124.07 551.93,311.38 370.48,188.74" fill="#dbeafe"/>
<polygon points="551.93,311.38 388.29,422.54 370.48,188.74" fill="#dbeafe"/>
<polygon class="mesh" points="558.82,124.07 370.48,188.74 388.29,422.54 551.93,311.38" fill="none" stroke="#2563eb"/>
<polygon points="589.52,255.44 538.03,219.52 414.96,433.93" fill="#d1fae5"/>
<polygon points="538.03,219.52 375.39,364.07 414.96,433.93" fill="#d1fae5"/>
<polygon class="mesh" points="589.52,255.44 414.96,433.93 375.39,364.07 538.03,219.52" fill="none" stroke="#047857"/>
<polygon points="548.01,242.92 547.74,251.43 416.5,315.38" fill="#fde68a"/>
<polygon points="547.74,251.43 417.03,325.42 416.5,315.38" fill="#fde68a"/>
<polygon class="mesh" points="548.01,242.92 416.5,315.38 417.03,325.42 547.74,251.43" fill="none" stroke="#b45309"/>
<polyline class="interface" points="553.85,230.56 387.28,385.07" fill="none"/>
<polygon points="533.88,233.58 529.13,331.32 479.58,255.49" fill="#e5e7eb"/>
<polygon points="529.13,331.32 477.7,361.05 479.58,255.49" fill="#e5e7eb"/>
<polygon class="mesh" points="533.88,233.58 479.58,255.49 477.7,361.05 529.13,331.32" fill="none" stroke="#475569"/>
<polygon points="571.94,277.63 571.79,294.17 451.8,378.03" fill="#c4b5fd"/>
<polygon points="571.79,294.17 453.38,396.49 451.8,378.03" fill="#c4b5fd"/>
<polygon class="mesh" points="571.94,277.63 451.8,378.03 453.38,396.49 571.79,294.17" fill="none" stroke="#6d28d9"/>
<rect x="60" y="506" width="18" height="12" rx="2" fill="#dbeafe" stroke="#2563eb"/><text class="label small" x="86" y="517">wall</text>
<rect x="236" y="506" width="18" height="12" rx="2" fill="#d1fae5" stroke="#047857"/><text class="label small" x="262" y="517">sloped slab</text>
<rect x="412" y="506" width="18" height="12" rx="2" fill="#fde68a" stroke="#b45309"/><text class="label small" x="438" y="517">rail</text>
<rect x="588" y="506" width="18" height="12" rx="2" fill="#e5e7eb" stroke="#475569"/><text class="label small" x="614" y="517">screen</text>
<rect x="764" y="506" width="18" height="12" rx="2" fill="#c4b5fd" stroke="#6d28d9"/><text class="label small" x="790" y="517">front screen — occludes</text>
</svg>
